<?xml version="1.0" encoding="UTF-8"?>
<svg version="1.1" viewBox="0 0 576 512" xmlns="http://www.w3.org/2000/svg"><path d="m403.69 257.68c-20.8 25-51.5 39.4-84 39.4s-63.2-14.3-84-39.4c-8.5-10.2-23.7-11.5-33.8-3.1-10.2 8.5-11.5 23.6-3.1 33.8 30 36 74.1 56.6 120.9 56.6s90.9-20.6 120.9-56.6c8.5-10.2 7.1-25.3-3.1-33.8-10.1-8.4-25.3-7.1-33.8 3.1zm-355.69 134.32v-248h16v248c0 4.411-3.589 8-8 8s-8-3.589-8-8zm480 8h-416.58c0.374-2.614 0.578-5.283 0.578-8v-280h416zm24-336h-440c-20.858 0-38.643 13.377-45.248 32h-42.752c-13.255 0-24 10.745-24 24v272c0 30.928 25.072 56 56 56h496c13.255 0 24-10.745 24-24v-336c0-13.255-10.745-24-24-24z"/></svg>
